<svg xmlns="http://www.w3.org/2000/svg" viewBox="0 0 70 125"><defs><style>.cls-1{fill:#231f20;}</style></defs><g id="Layer_1" data-name="Layer 1"><path class="cls-1" d="M20,15V25h5V15H55V40H25V30H20V50H15V15Zm10,5V35H50V20Z"/><polygon class="cls-1" points="15 55 35 55 35 60 20 60 20 80 15 80 15 55"/><path class="cls-1" d="M25,45H55v5H45V65H55V80H25V65H40V50H25Zm5,30H50V70H30Z"/><polygon class="cls-1" points="35 85 15 85 15 100 25 100 25 105 15 105 15 110 30 110 30 95 20 95 20 90 35 90 35 85"/><path class="cls-1" d="M40,85H55v25H35V95H50V90H40Zm0,20H50v-5H40Z"/><path class="cls-1" d="M65,120H5V5H65ZM0,125H70V0H0Z"/></g></svg>