<svg xmlns="http://www.w3.org/2000/svg" viewBox="0 0 90 145"><defs><style>.cls-1{fill:#231f20;}</style></defs><g id="Layer_1" data-name="Layer 1"><path class="cls-1" d="M30,25V35h5V25H65V50H35V40H30V60H25V25Zm10,5V45H60V30Z"/><polygon class="cls-1" points="25 65 45 65 45 70 30 70 30 90 25 90 25 65"/><path class="cls-1" d="M35,55H65v5H55V75H65V90H35V75H50V60H35Zm5,30H60V80H40Z"/><polygon class="cls-1" points="45 95 25 95 25 110 35 110 35 115 25 115 25 120 40 120 40 105 30 105 30 100 45 100 45 95"/><path class="cls-1" d="M50,95H65v25H45V105H60v-5H50Zm0,20H60v-5H50Z"/><path class="cls-1" d="M75,130H15V15H75Zm-65,5H80V10H10Z"/></g></svg>